<svg xmlns="http://www.w3.org/2000/svg" width="33.6" height="30.077" viewBox="0 0 33.6 30.077">
  <g id="그룹_14" data-name="그룹 14" transform="translate(-1203.3 -635.738)">
    <g id="그룹_13" data-name="그룹 13" transform="translate(1204 636.438)">
      <path id="패스_12" data-name="패스 12" d="M25.133,5.038C25.133,2.534,19.62.5,12.815.5S.5,2.534.5,5.038V23.467c0,2.506,5.512,4.54,12.315,4.54s12.318-2.034,12.318-4.54Z" transform="translate(-0.5 -0.5)" fill="none" stroke="#252525" stroke-linecap="round" stroke-linejoin="round" stroke-width="1.4"/>
      <g id="그룹_7" data-name="그룹 7" transform="translate(0 4.433)">
        <path id="패스_13" data-name="패스 13" d="M12.815,13.061C6.012,13.061.5,11.027.5,8.521v6.122c0,2.506,5.512,4.537,12.315,4.537s12.318-2.031,12.318-4.537V8.521C25.133,11.027,19.62,13.061,12.815,13.061Z" transform="translate(-0.5 -2.136)" fill="none" stroke="#252525" stroke-linecap="round" stroke-linejoin="round" stroke-width="1.4"/>
        <g id="그룹_6" data-name="그룹 6">
          <path id="패스_14" data-name="패스 14" d="M.5,3.787c0,2.506,5.512,4.538,12.315,4.538S25.133,6.293,25.133,3.787" transform="translate(-0.5 -3.787)" fill="none" stroke="#252525" stroke-linecap="round" stroke-linejoin="round" stroke-width="1.4"/>
        </g>
      </g>
    </g>
    <g id="_02-Icon_Setting" data-name="02-Icon/Setting" transform="translate(1221.2 650.115)">
      <g id="cog">
        <path id="Shape" d="M12.545,9.545h0a1.125,1.125,0,0,0,.225,1.241l.041.041a1.364,1.364,0,0,1,0,1.93h0a1.364,1.364,0,0,1-1.93,0l-.041-.041A1.125,1.125,0,0,0,9.6,12.491h0a1.125,1.125,0,0,0-.682,1.03v.116A1.364,1.364,0,0,1,7.555,15h0a1.364,1.364,0,0,1-1.364-1.364v-.061a1.125,1.125,0,0,0-.736-1.03h0a1.125,1.125,0,0,0-1.241.225l-.041.041a1.364,1.364,0,0,1-1.93,0h0a1.364,1.364,0,0,1,0-1.93l.041-.041A1.125,1.125,0,0,0,2.509,9.6h0a1.125,1.125,0,0,0-1.03-.682H1.364A1.364,1.364,0,0,1,0,7.555H0A1.364,1.364,0,0,1,1.364,6.191h.061a1.125,1.125,0,0,0,1.03-.736h0A1.125,1.125,0,0,0,2.23,4.214l-.041-.041a1.364,1.364,0,0,1,0-1.93h0a1.364,1.364,0,0,1,1.93,0l.041.041A1.125,1.125,0,0,0,5.4,2.509h.055a1.125,1.125,0,0,0,.682-1.03V1.364A1.364,1.364,0,0,1,7.5,0h0A1.364,1.364,0,0,1,8.864,1.364v.061a1.125,1.125,0,0,0,.682,1.03h0a1.125,1.125,0,0,0,1.241-.225l.041-.041a1.364,1.364,0,0,1,1.93,0h0a1.364,1.364,0,0,1,0,1.93l-.041.041A1.125,1.125,0,0,0,12.491,5.4v.055a1.125,1.125,0,0,0,1.03.682h.116A1.364,1.364,0,0,1,15,7.5h0a1.364,1.364,0,0,1-1.364,1.364h-.061A1.125,1.125,0,0,0,12.545,9.545Z" transform="translate(0)" fill="#fff" stroke="#655da7" stroke-linecap="round" stroke-linejoin="round" stroke-miterlimit="10" stroke-width="1.4"/>
        <circle id="Oval" cx="2.045" cy="2.045" r="2.045" stroke-width="1.4" transform="translate(5.455 5.455)" stroke="#655da7" stroke-linecap="round" stroke-linejoin="round" stroke-miterlimit="10" fill="#fff"/>
      </g>
    </g>
  </g>
</svg>
