<svg xmlns="http://www.w3.org/2000/svg" width="36.648" height="31.489" viewBox="0 0 36.648 31.489">
  <g id="그룹_17" data-name="그룹 17" transform="translate(-1200.3 -698.933)">
    <g id="_02-Icon_Setting" data-name="02-Icon/Setting" transform="translate(1201 699.633)">
      <g id="cog">
        <path id="Shape" d="M25.091,19.091h0a2.25,2.25,0,0,0,.45,2.482l.082.082a2.727,2.727,0,0,1,0,3.859h0a2.727,2.727,0,0,1-3.859,0l-.082-.082a2.25,2.25,0,0,0-2.482-.45h0a2.25,2.25,0,0,0-1.364,2.059v.232A2.727,2.727,0,0,1,15.109,30h0a2.727,2.727,0,0,1-2.727-2.727V27.15a2.25,2.25,0,0,0-1.473-2.059h0a2.25,2.25,0,0,0-2.482.45l-.082.082a2.727,2.727,0,0,1-3.859,0h0a2.727,2.727,0,0,1,0-3.859l.082-.082a2.25,2.25,0,0,0,.45-2.482h0a2.25,2.25,0,0,0-2.059-1.364H2.727A2.727,2.727,0,0,1,0,15.109H0a2.727,2.727,0,0,1,2.727-2.727H2.85a2.25,2.25,0,0,0,2.059-1.473h0a2.25,2.25,0,0,0-.45-2.482l-.082-.082a2.727,2.727,0,0,1,0-3.859h0a2.727,2.727,0,0,1,3.859,0l.082.082a2.25,2.25,0,0,0,2.482.45h.109a2.25,2.25,0,0,0,1.364-2.059V2.727A2.727,2.727,0,0,1,15,0h0a2.727,2.727,0,0,1,2.727,2.727V2.85a2.25,2.25,0,0,0,1.364,2.059h0a2.25,2.25,0,0,0,2.482-.45l.082-.082a2.727,2.727,0,0,1,3.859,0h0a2.727,2.727,0,0,1,0,3.859l-.082.082a2.25,2.25,0,0,0-.45,2.482v.109a2.25,2.25,0,0,0,2.059,1.364h.232A2.727,2.727,0,0,1,30,15h0a2.727,2.727,0,0,1-2.727,2.727H27.15A2.25,2.25,0,0,0,25.091,19.091Z" transform="translate(0)" fill="none" stroke="#252525" stroke-linecap="round" stroke-linejoin="round" stroke-miterlimit="10" stroke-width="1.4"/>
        <circle id="Oval" cx="4.091" cy="4.091" r="4.091" stroke-width="1.4" transform="translate(10.909 10.909)" stroke="#252525" stroke-linecap="round" stroke-linejoin="round" stroke-miterlimit="10" fill="none"/>
      </g>
    </g>
    <g id="그룹_16" data-name="그룹 16" transform="translate(1218.196 712.652)">
      <path id="패스_15" data-name="패스 15" d="M4.348,16.87l6.513-5.548a4.929,4.929,0,0,0,5.616-.608,6.016,6.016,0,0,0,1.772-6.205L14.911,7.352a1.769,1.769,0,0,1-2.619-.342,2.143,2.143,0,0,1,.316-2.843l3.337-2.843a4.933,4.933,0,0,0-5.974.393A5.991,5.991,0,0,0,8.092,7.494L1.579,13.042s-1.987,1.621-.57,3.579S4.348,16.87,4.348,16.87Z" transform="translate(-0.5 -0.5)" fill="#fff" stroke="#655da7" stroke-linecap="round" stroke-linejoin="round" stroke-width="1.4"/>
    </g>
  </g>
</svg>
