<svg xmlns="http://www.w3.org/2000/svg" width="31.034" height="28.894" viewBox="0 0 31.034 28.894">
  <g id="그룹_19" data-name="그룹 19" transform="translate(-1200.125 -509.267)">
    <g id="Components_Icon_App_mail" data-name="Components/Icon/App/mail" transform="translate(1200.896 509.967)">
      <g id="Group_21" data-name="Group 21">
        <path id="Stroke_1" data-name="Stroke 1" d="M29.073,3.816,26.223,0H3.282L.42,3.818A2.477,2.477,0,0,0,.037,5.582L.313,6.841a1.293,1.293,0,0,0,1.2.97H27.974a1.293,1.293,0,0,0,1.2-.97l.276-1.26A2.482,2.482,0,0,0,29.073,3.816Z" transform="translate(0 19.633)" fill="none" stroke="#232323" stroke-miterlimit="10" stroke-width="1.5"/>
        <path id="Stroke_3" data-name="Stroke 3" d="M6.735,1.672a.281.281,0,0,1-.272.443H.321a.281.281,0,0,1-.273-.443L.67.443A.887.887,0,0,1,1.39,0h4a.887.887,0,0,1,.72.443Z" transform="translate(11.354 22.19)" fill="none" stroke="#232323" stroke-miterlimit="10" stroke-width="1.5"/>
        <path id="Stroke_5" data-name="Stroke 5" d="M.522,1.9V0" transform="translate(25.694 17.728)" fill="none" stroke="#232323" stroke-linejoin="round" stroke-miterlimit="10" stroke-width="1.5"/>
        <path id="Stroke_7" data-name="Stroke 7" d="M9.938,0H.993A1,1,0,0,0,0,.993V15.02" transform="translate(3.275 4.613)" fill="none" stroke="#232323" stroke-linejoin="round" stroke-miterlimit="10" stroke-width="1.5"/>
        <path id="Fill_9" data-name="Fill 9" d="M13.615,8.008V2.366A3.258,3.258,0,0,1,10.219,0H3.406a3.258,3.258,0,0,1-3.4,2.366V8.008s-.576,7.675,6.8,8.423c7.378-.748,6.8-8.423,6.8-8.423" transform="translate(15.753)" fill="#fff"/>
        <path id="Stroke_11" data-name="Stroke 11" d="M13.615,8.008V2.366a6.067,6.067,0,0,1-.8-.074A3,3,0,0,1,10.219,0H3.406a3.258,3.258,0,0,1-3.4,2.366V8.008s-.576,7.675,6.8,8.423C14.191,15.683,13.615,8.008,13.615,8.008Z" transform="translate(15.753)" fill="none" stroke="#655da7" stroke-linecap="round" stroke-linejoin="round" stroke-miterlimit="10" stroke-width="1.4"/>
        <path id="Fill_13" data-name="Fill 13" d="M8.011,4.005A4.005,4.005,0,1,1,4.005,0,4.006,4.006,0,0,1,8.011,4.005" transform="translate(18.56 4.005)" fill="#fff"/>
        <path id="Stroke_15" data-name="Stroke 15" d="M8.011,4.005A4.005,4.005,0,1,1,4.005,0,4.006,4.006,0,0,1,8.011,4.005Z" transform="translate(18.56 4.005)" fill="none" stroke="#655da7" stroke-linecap="round" stroke-linejoin="round" stroke-miterlimit="10" stroke-width="1.4"/>
        <g id="Group_20" data-name="Group 20" transform="translate(20.108 5.34)">
          <path id="Fill_17" data-name="Fill 17" d="M0,5.34,5.34,0" transform="translate(0 0)" fill="#fff"/>
          <path id="Stroke_19" data-name="Stroke 19" d="M0,5.34,5.34,0" transform="translate(0 0)" fill="none" stroke="#655da7" stroke-linecap="round" stroke-linejoin="round" stroke-miterlimit="10" stroke-width="1.4"/>
        </g>
      </g>
    </g>
  </g>
</svg>
